<?xml version="1.0" encoding="UTF-8" standalone="no"?>
<!-- Created with Inkscape (http://www.inkscape.org/) -->
<svg
   xmlns:dc="http://purl.org/dc/elements/1.1/"
   xmlns:cc="http://creativecommons.org/ns#"
   xmlns:rdf="http://www.w3.org/1999/02/22-rdf-syntax-ns#"
   xmlns:svg="http://www.w3.org/2000/svg"
   xmlns="http://www.w3.org/2000/svg"
   xmlns:xlink="http://www.w3.org/1999/xlink"
   xmlns:sodipodi="http://sodipodi.sourceforge.net/DTD/sodipodi-0.dtd"
   xmlns:inkscape="http://www.inkscape.org/namespaces/inkscape"
   width="64px"
   height="64px"
   id="svg2383"
   sodipodi:version="0.32"
   inkscape:version="0.46"
   inkscape:export-filename="/Users/jacob/Documents/cocoa/Timecard/timeicon.png"
   inkscape:export-xdpi="90"
   inkscape:export-ydpi="90"
   sodipodi:docname="timeicon.svg"
   inkscape:output_extension="org.inkscape.output.svg.inkscape">
  <defs
     id="defs2385">
    <linearGradient
       id="linearGradient3221">
      <stop
         style="stop-color:#005c00;stop-opacity:1;"
         offset="0"
         id="stop3223" />
      <stop
         style="stop-color:#005c00;stop-opacity:0;"
         offset="1"
         id="stop3225" />
    </linearGradient>
    <inkscape:perspective
       sodipodi:type="inkscape:persp3d"
       inkscape:vp_x="76.727273 : 36.727273 : 1"
       inkscape:vp_y="6.123234e-14 : 1000 : 0"
       inkscape:vp_z="84.181818 : 70.909091 : 1"
       inkscape:persp3d-origin="32 : 21.333333 : 1"
       id="perspective2391" />
    <linearGradient
       inkscape:collect="always"
       xlink:href="#linearGradient3221"
       id="linearGradient3227"
       x1="-0.11435127"
       y1="31.858783"
       x2="63.496831"
       y2="31.858783"
       gradientUnits="userSpaceOnUse"
       gradientTransform="translate(-63.550023,-0.1675433)" />
  </defs>
  <sodipodi:namedview
     id="base"
     pagecolor="#ffffff"
     bordercolor="#666666"
     borderopacity="1.0"
     inkscape:pageopacity="0.0"
     inkscape:pageshadow="2"
     inkscape:zoom="7.7781746"
     inkscape:cx="24.171763"
     inkscape:cy="30.090552"
     inkscape:current-layer="layer1"
     showgrid="true"
     inkscape:document-units="px"
     inkscape:grid-bbox="true"
     inkscape:window-width="823"
     inkscape:window-height="713"
     inkscape:window-x="295"
     inkscape:window-y="0" />
  <metadata
     id="metadata2388">
    <rdf:RDF>
      <cc:Work
         rdf:about="">
        <dc:format>image/svg+xml</dc:format>
        <dc:type
           rdf:resource="http://purl.org/dc/dcmitype/StillImage" />
      </cc:Work>
    </rdf:RDF>
  </metadata>
  <g
     id="layer1"
     inkscape:label="Layer 1"
     inkscape:groupmode="layer">
    <rect
       style="fill:url(#linearGradient3227);fill-opacity:1;stroke:#000000;stroke-width:3.48604512;stroke-linecap:round;stroke-linejoin:round;stroke-miterlimit:18.29999924;stroke-dasharray:none;stroke-opacity:1"
       id="rect3219"
       width="60.125137"
       height="59.225185"
       x="-61.921352"
       y="2.0786471"
       ry="0"
       transform="matrix(0,-1,1,0,0,0)" />
    <path
       transform="matrix(0.9973041,0,0,-1.1219792,14.847173,73.790325)"
       style="fill:#550000;stroke:#000000;stroke-width:2.79999995;stroke-linecap:round;stroke-linejoin:round;stroke-miterlimit:18.29999924;stroke-opacity:1"
       d="M 21.15625,5.6875 C 20.942307,5.9551951 20.542909,5.467729 20.375,5.8125 C 19.359856,6.0205865 18.346123,6.2473682 17.3125,6.34375 C 17.072492,6.6709584 16.512508,6.3922235 16.3125,6.78125 C 15.881272,6.6430518 15.487392,7.2102891 15.0625,6.90625 C 14.521565,7.7548933 13.382878,7.6037978 12.589065,8.0942244 C 11.745763,8.4428451 10.852634,8.6554056 10.0625,9.125 C 9.6309495,9.3807025 9.0863498,9.4128765 8.65625,9.5 C 8.4056718,9.7231746 7.9537976,9.3534914 7.6545778,9.6326877 C 6.971648,10.068438 6.2840819,10.555035 5.4375,10.53125 C 5.0740357,10.600801 4.80857,11.020859 4.40625,10.78125 C 3.6607725,10.886633 2.8838257,11.269232 2.3236992,11.786308 C 1.9647181,12.075643 2.2051065,12.637547 1.71875,12.8125 C 1.4230051,12.947707 1.6933136,13.301172 1.4282424,13.490931 C 0.95819316,14.358294 0.48272391,15.229091 -0.076707962,16.041197 C -0.46935736,16.424825 -0.70754873,16.886869 -0.83891364,17.398189 C -1.267675,18.106474 -1.9958214,18.613293 -2.2902622,19.407327 C -2.7128407,20.335418 -3.1739155,21.249129 -3.4490909,22.23544 C -3.8498159,23.494724 -4.345497,24.756485 -4.3683754,26.094756 C -4.4431682,27.122175 -4.6048995,28.209301 -4.1875,29.1875 C -3.8144226,30.046529 -3.4865075,30.938551 -3.3450922,31.867618 C -3.0774339,32.95601 -2.490449,33.935555 -2.25,35.03125 C -2.1440299,36.059135 -1.9389604,37.07806 -1.6573634,38.071916 C -1.2807547,39.390838 -1.00747,40.758786 -0.32896386,41.967072 C 0.14684552,42.717182 8.3366301,45.939721 9.2738191,46.218826 C 10.134383,46.751562 7.6418741,51.623927 8.5698429,51.505046 C 9.5347755,51.389871 3.1316917,51.057731 3.9697162,50.545284 C 4.8134864,50.102758 1.5316859,54.569277 2.4723178,54.594182 C 3.1997598,54.723071 16.152127,57.922488 16.269759,58.917222 C 16.613957,58.516824 16.630532,52.197833 16.87491,53.086985 C 17.109538,53.82283 11.751743,52.846059 12.656124,53.065278 C 12.985425,53.18675 13.608359,46.929297 13.682664,47.491939 C 13.849588,47.979172 14.546041,47.978202 14.78125,47.8125 C 14.737305,48.41109 15.510286,48.179174 15.84375,48.0625 C 16.757747,48.300581 17.719463,48.377106 18.653431,48.556822 C 19.507863,48.878451 20.444131,48.858497 21.34375,48.8125 C 22.314575,48.764286 23.282208,48.675537 24.247962,48.566842 C 25.135352,48.424569 25.96148,48.033523 26.850368,47.889866 C 27.533853,47.620353 28.480479,47.944931 29.03125,47.65625 C 29.383081,47.74402 30.126239,47.285503 30.560822,47.016464 C 31.312571,46.642864 32.161465,46.525992 32.985317,46.4375 C 33.98818,46.440181 34.676691,45.477983 35.65625,45.4375 C 36.012063,45.448245 36.237856,45.232603 36.5625,45.375 C 36.957537,45.368067 36.77433,44.832641 37.21109,44.919338 C 38.179914,44.668193 39.127178,44.293499 39.99069,43.784037 C 40.821647,43.301468 41.579936,42.707966 42.40625,42.21875 C 43.718478,41.184799 45.070346,40.197228 46.28958,39.051623 C 47.030024,38.368044 47.745852,37.64937 48.403416,36.886355 C 49.20439,35.907513 49.866027,34.821353 50.483536,33.720428 C 51.242711,32.248921 51.97949,30.729006 52.2421,29.078768 C 52.368201,28.103607 52.48079,27.106132 52.35737,26.12659 C 52.174753,24.985929 51.918145,23.850863 51.496378,22.773015 C 51.100687,21.818676 50.985206,20.748739 50.535564,19.831903 C 50.018319,18.962032 49.758222,17.939109 49.032528,17.200108 C 48.494061,16.586292 48.243508,15.757594 47.562798,15.29213 C 47.448895,15.229493 47.450934,14.874233 47.25,15.03125 L 47.34375,14.90625 C 47.165861,14.984941 47.165861,14.55592 47.34375,14.8125 C 46.940239,14.59824 47.768832,14.701299 47.240082,14.608774 C 47.029533,14.792263 46.755517,14.454611 46.606208,14.658362 C 46.371283,14.692838 46.760012,14.13603 46.40625,14.1875 C 46.793361,14.127923 46.044867,13.82611 46.15625,14.03125 C 45.992495,14.136338 45.825604,14.302198 45.96875,14 C 45.788339,13.863199 45.852577,13.499505 45.59375,13.53125 C 45.548561,13.421704 45.883843,13.253438 45.59375,13.3125 C 45.50075,13.524536 45.291585,13.190042 45.3125,13.03125 C 44.97078,12.875152 45.567689,13.492788 45.15625,13.1875 L 45.03125,13.15625 C 45.032898,13.256904 44.936748,12.814836 44.78125,12.875 C 44.591377,13.219752 44.613992,12.497691 44.59375,12.78125 C 44.3653,12.965843 44.127285,12.863539 43.90625,12.71875 C 44.095282,12.765067 44.300731,12.763053 44.03125,12.625 C 43.8645,12.733789 44.047788,12.314387 43.733433,12.5 C 43.461392,12.45946 43.690794,12.039181 43.40625,12.15625 C 43.280926,12.039084 43.139502,11.846544 43.03125,12.09375 C 43.071896,11.847408 42.816568,11.759632 42.75,12.03125 C 42.680019,11.840093 42.477106,11.50868 42.391464,11.904572 C 42.161079,12.116289 42.155684,11.759722 42.15625,11.59375 L 42,11.59375 C 42.182282,11.419632 41.887752,11.32479 41.78125,11.4375 C 41.387756,11.440321 41.566328,10.709604 41.125,11.03125 C 40.703466,11.285628 40.733956,10.563884 40.3125,10.5625 C 39.627582,10.368476 38.839555,10.34016 38.40625,9.6875 C 38.249431,9.4494856 37.955742,9.4965102 37.78125,9.46875 C 37.711879,9.3939055 37.700204,9.7656074 37.5625,9.53125 C 36.555881,9.2583733 35.573281,8.90291 34.625,8.46875 C 33.731664,8.1444763 32.779765,8.0053189 31.90625,7.625 C 30.909433,7.4785873 30.030306,6.9741308 29.09375,6.65625 C 28.169443,6.5149583 27.23091,6.4615003 26.31672,6.2478277 C 25.327251,6.0936076 24.317966,6.039986 23.347441,5.7819211 C 22.623334,5.7282103 21.874665,5.6349234 21.15625,5.6875 z M 2.53125,11.9375 C 2.6620571,12.376432 2.2698483,11.728488 2.53125,11.9375 z M 36.96875,44.625 C 37.22705,44.865211 36.747179,44.574196 36.96875,44.625 z"
       id="path3212"
       sodipodi:nodetypes="ccccccsccccccccccccsccsccscccccccccsccccccccscccccccccccccccscccccccccccccccccccccscccccccccccc" />
    <path
       style="fill:#005c00;fill-opacity:0.41263942;stroke:#000000;stroke-width:2.79999995;stroke-linecap:round;stroke-linejoin:round;stroke-miterlimit:18.29999924;stroke-dasharray:none;stroke-opacity:1"
       id="path3229"
       d="M 28.254863,27.92397 C 28.506749,28.691647 28.974619,29.370772 29.394395,30.054824 C 30.140588,31.277612 30.941854,32.465141 31.709037,33.67473 C 32.276916,34.636751 32.860423,35.589325 33.412845,36.560398 C 33.475494,36.673376 33.539155,36.785799 33.600793,36.899332 C 33.654145,36.997601 33.701778,37.099002 33.7578,37.195773 C 33.90981,37.458352 34.101251,37.69506 34.258266,37.954278 C 34.467214,38.273977 34.550942,38.651065 34.677615,39.006761 C 34.802798,39.329477 34.9398,39.647202 35.072461,39.966868 C 35.222179,40.217243 35.342707,40.48242 35.460019,40.748943 C 35.546319,41.019547 35.699288,41.256899 35.83461,41.504696 C 35.93266,41.63923 35.973521,41.801845 36.041699,41.950417 C 36.104465,42.087198 36.191563,42.211789 36.256284,42.348374 C 36.399745,42.639774 36.506665,42.948584 36.595222,43.260776 C 36.716902,43.623999 36.847093,43.983258 36.988315,44.339307 C 37.137931,44.668047 37.291497,44.991232 37.379552,45.342586 C 37.429663,45.613227 37.498039,45.879738 37.547579,46.15049 L 35.88642,47.032093 C 35.845192,46.763168 35.77963,46.499756 35.733514,46.231825 C 35.650881,45.887363 35.499899,45.571359 35.358919,45.247568 C 35.219002,44.884722 35.085512,44.520411 34.946059,44.15751 C 34.865835,43.854679 34.761225,43.555487 34.621818,43.274787 C 34.487508,42.993783 34.340394,42.720325 34.203908,42.44085 C 34.06651,42.188269 33.900752,41.951465 33.820369,41.672423 C 33.701046,41.404652 33.582104,41.137946 33.433545,40.884296 C 33.301213,40.560828 33.177764,40.233834 33.040361,39.91228 C 32.919324,39.56702 32.842258,39.201156 32.642648,38.889255 C 32.489587,38.62332 32.314127,38.370678 32.174891,38.096503 C 32.124871,37.998006 32.083828,37.895166 32.035343,37.795904 C 31.978833,37.680212 31.918421,37.566467 31.85996,37.451748 C 31.346122,36.463627 30.797365,35.494418 30.241472,34.52945 C 29.483275,33.313787 28.698951,32.115823 27.881775,30.938763 C 27.41856,30.264002 26.97573,29.571138 26.606043,28.840019 L 28.254863,27.92397 z" />
    <path
       style="fill:#808080;fill-opacity:0.41263941999999998;stroke:#ffffff;stroke-width:2.79999995000000013;stroke-linecap:round;stroke-linejoin:round;stroke-miterlimit:18.29999923999999822;stroke-dasharray:none;stroke-opacity:0.64312267"
       id="path3253"
       d="M 57.560988,44.201834 C 56.862185,44.147317 56.159611,44.14609 55.458971,44.134061 C 54.066958,44.082401 52.677256,44.23207 51.292155,44.352576 C 49.937343,44.467298 48.605841,44.736436 47.292498,45.079458 C 46.439973,45.318025 45.594314,45.580256 44.750883,45.848998 C 44.010511,46.110609 43.281835,46.394801 42.575647,46.738381 C 42.033006,47.007053 41.526405,47.348628 41.03979,47.708038 C 40.744162,47.920724 40.436248,48.111324 40.106423,48.265866 C 39.670496,48.485893 39.252349,48.738663 38.830995,48.985363 C 38.2592,49.247546 37.699437,49.537509 37.124007,49.791448 C 36.749485,49.967626 36.371462,50.162825 36.044455,50.419169 C 35.801489,50.581894 35.548043,50.715883 35.278928,50.547107 C 35.114795,50.340127 35.138257,50.054858 35.127199,49.804706 C 35.105808,49.320791 35.12118,49.56501 35.077771,49.053779 C 34.961628,48.013231 34.691484,47.001525 34.40682,45.996971 C 34.109705,44.988126 33.841434,43.97171 33.573164,42.955012 C 33.359606,42.092309 33.056273,41.256187 32.734596,40.428987 C 32.447651,39.70546 32.083359,39.02411 31.666175,38.368885 C 31.275127,37.810138 30.895583,37.244167 30.531737,36.667331 C 30.187488,36.135935 29.841712,35.605517 29.49967,35.072695 C 29.158994,34.591209 28.861424,34.083028 28.554056,33.580304 C 28.23611,33.080957 27.883923,32.604896 27.510193,32.146175 C 27.292556,31.873738 27.045203,31.634734 26.777567,31.412841 L 26.90651,29.548735 C 27.18746,29.780162 27.451645,30.019721 27.672318,30.311649 C 28.056487,30.772569 28.404782,31.263819 28.738845,31.762089 C 29.054801,32.258149 29.341553,32.772233 29.683274,33.251581 C 30.022403,33.790957 30.374593,34.321879 30.713866,34.861198 C 31.081297,35.435824 31.451283,36.008849 31.847949,36.563982 C 32.273381,37.231876 32.654429,37.918048 32.948044,38.656105 C 33.274137,39.486174 33.591078,40.322686 33.806801,41.189539 C 34.071784,42.217714 34.32394,43.249008 34.631731,44.265722 C 34.918175,45.255576 35.19766,46.247979 35.342221,47.270666 C 35.394175,47.729787 35.424374,48.188878 35.433836,48.650837 C 35.489141,48.884862 35.825379,48.609974 35.927896,48.548215 C 36.281165,48.31566 36.656008,48.114387 37.048111,47.955299 C 37.616983,47.707684 38.181017,47.444285 38.731943,47.1593 C 39.158248,46.895636 39.583948,46.629992 40.023027,46.387983 C 40.336265,46.23675 40.636154,46.058434 40.925586,45.865823 C 41.427329,45.520976 41.940034,45.183695 42.495931,44.932059 C 43.215667,44.602606 43.950345,44.308047 44.695863,44.041921 C 45.539723,43.780604 46.39472,43.558334 47.250517,43.339831 C 48.577453,43.03321 49.916404,42.773184 51.277117,42.674218 C 52.668649,42.545258 54.060362,42.380142 55.458971,42.365872 C 56.159611,42.353843 56.862185,42.352616 57.560988,42.298099 L 57.560988,44.201834 z" />
    <path
       style="fill:#005c00;fill-opacity:0.41263942;stroke:#000000;stroke-width:2.79999995;stroke-linecap:round;stroke-linejoin:round;stroke-miterlimit:18.29999924;stroke-dasharray:none;stroke-opacity:1"
       id="path3231"
       d="M 56.805817,42.967275 C 56.107014,42.912758 55.40444,42.911531 54.7038,42.899502 C 53.311787,42.847842 51.922085,42.997511 50.536984,43.118017 C 49.182172,43.232739 47.85067,43.501877 46.537327,43.844899 C 45.684802,44.083466 44.839143,44.345697 43.995712,44.614439 C 43.25534,44.87605 42.526664,45.160242 41.820476,45.503822 C 41.277835,45.772494 40.771234,46.114069 40.284619,46.473479 C 39.988991,46.686165 39.681077,46.876765 39.351252,47.031307 C 38.915325,47.251334 38.497178,47.504104 38.075824,47.750804 C 37.504029,48.012987 36.944266,48.30295 36.368836,48.556889 C 35.994314,48.733067 35.616291,48.928266 35.289284,49.18461 C 35.046318,49.347335 34.792872,49.481324 34.523757,49.312548 C 34.359624,49.105568 34.383086,48.820299 34.372028,48.570147 C 34.350637,48.086232 34.366009,48.330451 34.3226,47.81922 C 34.206457,46.778672 33.936313,45.766966 33.651649,44.762412 C 33.354534,43.753567 33.086263,42.737151 32.817993,41.720453 C 32.604435,40.85775 32.301102,40.021628 31.979425,39.194428 C 31.69248,38.470901 31.328188,37.789551 30.911004,37.134326 C 30.519956,36.575579 30.140412,36.009608 29.776566,35.432772 C 29.432317,34.901376 29.086541,34.370958 28.744499,33.838136 C 28.403823,33.35665 28.106253,32.848469 27.798885,32.345745 C 27.480939,31.846398 27.128752,31.370337 26.755022,30.911616 C 26.537385,30.639179 26.290032,30.400175 26.022396,30.178282 L 26.151339,28.314176 C 26.432289,28.545603 26.696474,28.785162 26.917147,29.07709 C 27.301316,29.53801 27.649611,30.02926 27.983674,30.52753 C 28.29963,31.02359 28.586382,31.537674 28.928103,32.017022 C 29.267232,32.556398 29.619422,33.08732 29.958695,33.626639 C 30.326126,34.201265 30.696112,34.77429 31.092778,35.329423 C 31.51821,35.997317 31.899258,36.683489 32.192873,37.421546 C 32.518966,38.251615 32.835907,39.088127 33.05163,39.95498 C 33.316613,40.983155 33.568769,42.014449 33.87656,43.031163 C 34.163004,44.021017 34.442489,45.01342 34.58705,46.036107 C 34.639004,46.495228 34.669203,46.954319 34.678665,47.416278 C 34.73397,47.650303 35.070208,47.375415 35.172725,47.313656 C 35.525994,47.081101 35.900837,46.879828 36.29294,46.72074 C 36.861812,46.473125 37.425846,46.209726 37.976772,45.924741 C 38.403077,45.661077 38.828777,45.395433 39.267856,45.153424 C 39.581094,45.002191 39.880983,44.823875 40.170415,44.631264 C 40.672158,44.286417 41.184863,43.949136 41.74076,43.6975 C 42.460496,43.368047 43.195174,43.073488 43.940692,42.807362 C 44.784552,42.546045 45.639549,42.323775 46.495346,42.105272 C 47.822282,41.798651 49.161233,41.538625 50.521946,41.439659 C 51.913478,41.310699 53.305191,41.145583 54.7038,41.131313 C 55.40444,41.119284 56.107014,41.118057 56.805817,41.06354 L 56.805817,42.967275 z" />
    <path
       style="fill:#005c00;fill-opacity:0.41263942;stroke:#000000;stroke-width:2.79999995;stroke-linecap:round;stroke-linejoin:round;stroke-miterlimit:18.29999924;stroke-dasharray:none;stroke-opacity:1"
       id="path3233"
       d="M 35.735194,23.241129 C 35.953455,23.425802 36.1187,23.655317 36.259363,23.901688 C 36.403124,24.117273 36.472789,24.357911 36.50925,24.611317 C 36.507907,25.271098 36.524851,25.931169 36.505222,26.590659 C 36.500103,26.762625 36.142696,26.844778 36.020826,26.867355 C 35.76342,26.891601 35.499428,26.918081 35.245289,26.863652 C 34.990062,26.759148 34.840654,26.519847 34.681376,26.307653 C 34.600148,26.179397 34.502297,26.037181 34.504125,25.877802 C 34.526986,23.883683 34.1431,24.420897 34.616306,23.805954 C 34.671208,23.700562 34.758904,23.642546 34.856547,23.582338 L 34.978383,25.475046 C 34.912579,25.538662 34.859045,25.605043 34.822778,25.690734 C 34.660424,26.350858 34.816012,25.747734 34.797862,24.008277 C 34.797484,23.972078 34.787442,24.079977 34.784521,24.11606 C 34.776163,24.219316 34.775666,24.221515 34.814664,24.323175 C 34.828435,24.359074 34.846838,24.39302 34.862925,24.427943 C 34.987954,24.622819 35.124755,24.816501 35.295835,24.973861 C 35.508257,25.052088 35.759321,24.991569 35.980057,24.974083 C 36.055964,24.954192 36.14518,24.939229 36.191379,24.86635 C 36.218289,24.823899 36.221407,24.668434 36.221931,24.718693 C 36.228053,25.3057 36.229282,25.892747 36.232957,26.479774 C 36.21789,26.235317 36.19106,25.991329 36.06402,25.775659 C 35.927831,25.550981 35.822146,25.31237 35.612773,25.140924 L 35.735194,23.241129 z" />
    <path
       style="fill:#005c00;fill-opacity:0.41263942;stroke:#000000;stroke-width:2.79999995;stroke-linecap:round;stroke-linejoin:round;stroke-miterlimit:18.29999924;stroke-dasharray:none;stroke-opacity:1"
       id="path3235"
       d="M 44.159264,25.890411 C 44.477077,25.948858 44.779977,26.059851 45.060787,26.218302 C 45.351621,26.40789 45.610013,26.643774 45.82908,26.912392 C 46.402227,27.684388 46.138078,28.580034 46.145806,29.552059 C 45.992197,29.825133 45.768566,29.999525 45.483534,30.117991 C 45.184376,30.227139 44.891009,30.237307 44.594112,30.122819 C 43.88455,29.66318 44.011739,28.238507 44.310178,27.676718 C 44.368323,27.557499 44.331499,27.613335 44.422205,27.510247 L 44.610612,29.400151 C 44.569513,29.501283 44.587928,29.448197 44.556431,29.559774 C 44.561758,30.294347 44.548032,28.394053 44.540695,27.867281 C 44.540235,27.834263 44.530045,27.933277 44.533679,27.966098 C 44.545345,28.071439 44.603377,28.165142 44.67667,28.237707 C 44.908989,28.374105 45.160364,28.32899 45.403727,28.236811 C 45.623954,28.127758 45.838757,27.952388 45.851321,27.688242 C 45.883015,30.959566 46.057533,29.437919 45.658926,28.781479 C 45.460151,28.515087 45.233799,28.284708 44.96356,28.088482 C 44.713147,27.943269 44.453788,27.819139 44.159264,27.799094 L 44.159264,25.890411 z" />
    <path
       style="fill:#005c00;fill-opacity:0.41263942;stroke:#000000;stroke-width:2.79999995;stroke-linecap:round;stroke-linejoin:round;stroke-miterlimit:18.29999924;stroke-dasharray:none;stroke-opacity:1"
       id="path3237"
       d="M 54.360067,30.937391 C 54.594356,31.083404 54.804445,31.266066 54.999215,31.460867 C 55.188572,31.634235 55.315298,31.833019 55.383677,32.079072 C 55.414806,32.241752 55.433274,32.408854 55.431705,32.574783 C 55.412705,34.584188 55.754734,33.994791 55.347341,34.652483 C 55.150715,34.845781 54.924318,34.833155 54.715181,34.672841 C 54.690914,34.642147 54.666648,34.611454 54.642381,34.580761 L 54.841516,32.695656 C 54.851005,32.724145 54.860494,32.752635 54.869983,32.781125 C 54.946901,32.92263 55.059663,32.937687 55.122185,32.769113 C 55.224534,32.104363 55.135591,32.652536 55.140057,34.439975 C 55.140161,34.481864 55.139938,34.356196 55.139504,34.31431 C 55.138253,34.193489 55.135641,34.072554 55.12489,33.952137 C 55.095823,33.711618 55.032359,33.501897 54.841558,33.33737 C 54.682536,33.138576 54.481077,32.981984 54.271711,32.841689 L 54.360067,30.937391 z" />
    <path
       style="fill:#005c00;fill-opacity:0.41263942;stroke:#000000;stroke-width:2.79999995;stroke-linecap:round;stroke-linejoin:round;stroke-miterlimit:18.29999924;stroke-dasharray:none;stroke-opacity:1"
       id="path3239"
       d="M 19.305457,32.520483 C 19.302938,32.784986 19.303422,33.049507 19.303467,33.314019 C 19.303723,34.048976 19.304464,34.347434 19.276762,35.438637 C 19.275762,35.478015 19.267872,35.51859 19.250168,35.553779 C 19.192419,35.668561 19.05999,35.753718 18.958968,35.823741 C 18.714649,35.963169 18.446743,36.005852 18.170598,35.976296 C 17.880823,35.918876 17.698544,35.834361 17.563996,35.562922 C 17.474999,35.290329 17.425997,35.007127 17.347125,34.731859 C 17.056434,33.930075 17.185586,33.452709 17.278392,32.364491 C 17.281506,32.327986 17.509631,32.261019 17.527737,32.255011 L 17.605861,34.147272 C 17.11462,34.459747 17.563898,36.864971 17.516018,32.457615 C 17.514544,32.321908 17.487582,32.935501 17.579986,32.8718 C 17.68228,33.135046 17.73732,33.413901 17.794796,33.688806 C 17.855987,33.972946 17.908076,34.005087 18.18939,34.088011 C 18.419564,34.109087 18.639466,34.084904 18.830173,33.939279 C 18.912724,33.857903 18.96665,33.797013 18.988949,33.680502 C 18.995998,33.643671 19.004356,33.53163 19.004812,33.569127 C 19.009412,33.947124 19.008575,36.006943 19.008864,35.17407 C 19.008907,34.917937 19.009486,34.66179 19.006874,34.405667 L 19.305457,32.520483 z" />
    <path
       style="fill:#005c00;fill-opacity:0.41263942;stroke:#000000;stroke-width:2.79999995;stroke-linecap:round;stroke-linejoin:round;stroke-miterlimit:18.29999924;stroke-dasharray:none;stroke-opacity:1"
       id="path3241"
       d="M 17.605788,44.581993 C 17.835388,44.792411 17.96321,45.06035 18.081151,45.342241 C 18.206812,45.639398 18.242533,45.958444 18.264643,46.277005 C 18.254204,47.114463 18.729347,48.301133 18.014808,48.8487 C 17.737227,48.979356 17.440224,48.996971 17.14042,48.964822 C 16.873717,48.919916 16.665344,48.755602 16.494954,48.554472 C 16.37644,48.368327 16.285531,48.168204 16.231752,47.954313 C 16.103159,47.226735 16.195389,46.463073 16.207506,45.739667 C 16.209816,45.601803 16.32133,45.536926 16.420518,45.466963 C 16.456681,45.452607 16.492845,45.43825 16.529008,45.423893 L 16.614814,47.321821 C 16.597647,47.333344 16.58048,47.344867 16.563313,47.35639 C 16.484332,47.471294 16.488229,47.672733 16.487543,47.612777 C 16.452078,44.517162 16.443333,45.426501 16.492911,46.079795 C 16.519328,46.292809 16.586808,46.478246 16.678309,46.670242 C 16.778819,46.86346 16.950894,47.019092 17.161564,47.081505 C 17.403565,47.110265 17.66529,47.11479 17.869486,46.96065 C 17.967695,46.828711 17.977465,46.643092 17.978086,46.685266 C 18.023625,49.775122 17.985463,48.796745 17.98021,48.134427 C 17.969772,47.821249 17.956997,47.504191 17.85684,47.204284 C 17.762978,46.944701 17.677096,46.664493 17.456128,46.483596 L 17.605788,44.581993 z" />
    <path
       style="fill:#005c00;fill-opacity:0.41263942;stroke:#000000;stroke-width:2.79999995;stroke-linecap:round;stroke-linejoin:round;stroke-miterlimit:18.29999924;stroke-dasharray:none;stroke-opacity:1"
       id="path3243"
       d="M 23.355125,54.833476 C 23.59138,54.932652 23.832203,55.021278 24.073907,55.106602 C 24.325228,55.18906 24.486358,55.370586 24.597852,55.602448 C 24.690069,55.842843 24.697871,56.101796 24.704988,56.35596 C 24.714399,57.106017 24.714861,57.052409 24.679304,58.466982 C 24.677718,58.530067 24.631563,58.664473 24.605662,58.717787 C 24.566766,58.797848 24.514489,58.870716 24.471171,58.948474 C 24.312224,59.164504 24.119939,59.339638 23.888013,59.47582 C 23.627943,59.611587 23.339044,59.64757 23.050836,59.667187 C 22.728464,59.685113 22.410107,59.670174 22.095295,59.59788 C 21.81262,59.513876 21.677199,59.313018 21.609329,59.040209 C 21.62794,57.000745 21.25223,57.595235 21.705728,56.932629 L 21.919312,58.809742 C 21.759986,59.48334 21.894494,58.952995 21.87396,57.168961 C 21.892595,57.392639 21.915342,57.613647 22.143201,57.718047 C 22.435086,57.804593 22.736043,57.80464 23.037962,57.781345 C 23.295671,57.763642 23.554955,57.733498 23.780558,57.596354 C 23.976776,57.457042 24.148681,57.28263 24.267261,57.071535 C 24.326655,56.954112 24.367732,56.849719 24.39088,56.719326 C 24.398203,56.678075 24.408147,56.553018 24.408699,56.594909 C 24.415653,57.122513 24.410653,59.027087 24.412687,58.220227 C 24.411938,57.972831 24.41427,57.723215 24.368621,57.479083 C 24.314546,57.269038 24.219818,57.083337 24.010907,56.992267 C 23.775178,56.911808 23.545453,56.81583 23.308386,56.740978 L 23.355125,54.833476 z" />
    <path
       style="fill:#005c00;fill-opacity:0.41263942;stroke:#000000;stroke-width:2.79999995;stroke-linecap:round;stroke-linejoin:round;stroke-miterlimit:18.29999924;stroke-dasharray:none;stroke-opacity:1"
       id="path3245"
       d="M 37.304539,58.104892 C 37.303021,59.001003 37.288631,59.896792 37.277833,60.792946 C 37.238063,61.112781 37.157624,61.305556 36.909158,61.508188 C 36.693312,61.674938 36.453482,61.759525 36.188058,61.812392 C 35.922758,61.849534 35.652273,61.872324 35.385032,61.847243 C 35.150528,61.791938 34.941134,61.676184 34.767357,61.510978 C 34.678971,61.393695 34.593924,61.241362 34.592085,61.088785 C 34.568899,59.164369 34.438023,59.747729 34.615038,59.007243 C 34.719772,58.757124 34.924432,58.672291 35.174381,58.608079 C 35.218198,58.600583 35.262014,58.593087 35.305831,58.585591 L 35.340845,60.473679 C 35.303071,60.481488 35.265297,60.489297 35.227524,60.497105 C 35.029854,60.562097 34.902413,60.662825 34.882892,60.883267 C 34.837922,61.565683 34.869049,61.131032 34.862718,59.217286 C 34.862185,59.056177 34.887068,59.74077 34.933676,59.622054 C 35.038675,59.79655 35.222382,59.887119 35.40861,59.956144 C 35.652421,59.996415 35.905724,59.95812 36.148886,59.926938 C 36.381473,59.874883 36.588854,59.785745 36.766387,59.621691 C 36.936259,59.432265 36.982164,59.186008 37.001904,58.937174 C 37.013983,62.107365 37.009577,60.710341 37.005955,59.990076 L 37.304539,58.104892 z" />
    <path
       style="fill:#005c00;fill-opacity:0.41263942;stroke:#000000;stroke-width:2.79999995;stroke-linecap:round;stroke-linejoin:round;stroke-miterlimit:18.29999924;stroke-dasharray:none;stroke-opacity:1"
       id="path3247"
       d="M 46.08023,58.234248 C 46.092639,58.203183 46.106306,58.172591 46.117456,58.141052 C 46.174112,57.980803 46.165298,57.594784 46.163985,57.751725 C 46.149082,59.532922 46.322362,60.044893 46.112596,59.374218 C 45.986899,59.140696 45.766521,59.022764 45.521194,58.952074 C 45.335467,58.909692 45.134205,58.902996 45.056418,59.102058 C 45.008037,59.318154 45.011895,59.541826 45.010932,59.76208 C 45.013048,60.474113 45.011045,59.848368 45.012017,58.154487 C 45.012042,58.111369 45.010924,58.240742 45.012233,58.28384 C 45.015752,58.399704 45.045319,58.484464 45.093634,58.588421 C 45.213152,58.826246 45.37224,59.02099 45.575708,59.190309 C 45.71808,59.289612 45.645064,59.24464 45.794438,59.325739 L 45.706222,61.208472 C 45.530529,61.125134 45.616106,61.171481 45.449564,61.069298 C 45.230401,60.903485 45.021396,60.728662 44.904682,60.472148 C 44.792447,60.333377 44.716981,60.198723 44.716944,60.01827 C 44.716536,58.035811 44.705551,58.686085 44.719809,57.896827 C 44.729395,57.659762 44.733467,57.408807 44.881951,57.211189 C 45.077676,57.034814 45.317498,57.009041 45.570979,57.067017 C 45.863026,57.141524 46.121114,57.267143 46.321313,57.500228 C 46.773649,58.169766 46.423859,57.604647 46.44505,59.613835 C 46.446958,59.794752 46.358367,59.966783 46.29086,60.128923 L 46.08023,58.234248 z" />
    <path
       style="fill:#005c00;fill-opacity:0.41263942;stroke:#000000;stroke-width:2.79999995;stroke-linecap:round;stroke-linejoin:round;stroke-miterlimit:18.29999924;stroke-dasharray:none;stroke-opacity:1"
       id="path3249"
       d="M 55.275387,54.857763 C 55.183315,54.634502 54.990188,54.527411 54.770763,54.458829 C 54.565432,54.402112 54.353888,54.446418 54.224995,54.621955 C 54.137487,54.827802 54.143255,55.058428 54.139777,55.278263 C 54.137038,55.931127 54.137715,56.902344 54.139685,53.86484 C 54.139716,53.816715 54.139902,53.961089 54.140018,54.009213 C 54.140505,54.21182 54.140217,54.124277 54.141136,54.327539 C 54.132564,54.609506 54.142159,54.887256 54.233861,55.15576 C 54.31994,55.34439 54.428414,55.528566 54.607022,55.640389 C 54.799272,55.726705 55.002313,55.731381 55.205045,55.691446 C 55.405059,55.608347 55.458791,55.425225 55.495894,55.229316 C 55.514314,55.072154 55.506873,55.151641 55.518008,54.990835 L 55.790976,56.859567 C 55.762598,57.025136 55.780437,56.943441 55.737608,57.104686 C 55.643511,57.33933 55.495303,57.523055 55.238705,57.585366 C 54.995966,57.625329 54.751524,57.612254 54.516693,57.533588 C 54.286025,57.43162 54.131222,57.253974 54.019196,57.028746 C 53.87033,56.767036 53.833229,56.480435 53.848381,56.181794 C 53.843526,55.260193 53.826059,54.338146 53.853034,53.416865 C 53.869796,53.168842 53.893074,52.915014 54.081019,52.731768 C 54.299662,52.571374 54.555444,52.505212 54.823589,52.572248 C 55.080698,52.64073 55.31928,52.745843 55.486017,52.963088 L 55.275387,54.857763 z" />
    <path
       style="fill:#005c00;fill-opacity:0.41263942;stroke:#000000;stroke-width:2.79999995;stroke-linecap:round;stroke-linejoin:round;stroke-miterlimit:18.29999924;stroke-dasharray:none;stroke-opacity:1"
       id="path3251"
       d="M 61.474735,46.019795 C 61.450945,46.903879 61.577396,47.801962 61.422149,48.675231 C 61.337903,48.995384 61.047147,49.12995 60.752786,49.209318 C 60.475492,49.262845 60.199878,49.299477 59.938521,49.177431 C 59.847385,49.102278 59.825563,49.097592 59.764503,48.995228 C 59.706269,48.8976 59.656337,48.751416 59.655204,48.636766 C 59.648679,47.976347 59.656066,47.315864 59.656497,46.655413 C 59.72719,46.498373 59.859053,46.43822 60.017679,46.402398 L 60.068495,48.304061 C 59.968123,48.342728 59.939924,48.421928 59.940986,48.526412 C 59.912313,44.501355 59.773337,46.800307 60.042629,47.287311 C 60.221389,47.446288 60.483917,47.35775 60.699104,47.324227 C 60.958899,47.240902 61.127908,47.098683 61.155522,46.811481 C 61.243419,46.102341 61.172412,46.627028 61.178134,48.39126 C 61.178285,48.437764 61.178047,48.298251 61.178003,48.251747 C 61.177814,48.168853 61.177729,48.082138 61.177127,47.99911 C 61.176899,47.967732 61.176476,47.936356 61.176151,47.904979 L 61.474735,46.019795 z" />
    <path
       style="fill:#005c00;fill-opacity:1;stroke:none;stroke-width:2.79999995;stroke-linecap:round;stroke-linejoin:round;stroke-miterlimit:18.29999924;stroke-dasharray:none;stroke-opacity:1"
       d="M 1.5938451,0.2670217 C 0.86711201,0.34536156 0.3185264,0.96249416 0.3259267,1.6933692 L 0.3259267,62.741044 C 0.33986874,63.517812 0.97541568,64.13921 1.7523349,64.135695 L 62.612419,64.135695 C 63.376988,64.122085 63.99352,63.505579 64.00713,62.741044 L 64.00713,1.6933692 C 64.010645,0.91648305 63.389221,0.28096315 62.612419,0.2670217 L 1.7523349,0.2670217 C 1.6995462,0.26407173 1.6466338,0.26407173 1.5938451,0.2670217 L 1.5938451,0.2670217 z M 4.4380167,4.7030788 L 61.186011,3.1197167 L 61.186011,61.314695 L 3.1470452,61.314695 L 4.4380167,4.7030788 z"
       id="rect3206"
       sodipodi:nodetypes="cccccccccccccccc"
       inkscape:export-xdpi="90"
       inkscape:export-ydpi="90"
       inkscape:export-filename="/Users/jacob/Documents/cocoa/Timecard/timeicon.png" />
  </g>
</svg>
